<svg viewBox="0 0 160 160" xmlns="http://www.w3.org/2000/svg">
<rect x="0" y="0" width="160" height="160" fill="#0f172a"/>
<g transform="translate(5, 85)" id="svgGroup" stroke-linecap="round" fill-rule="evenodd" font-size="9pt" stroke="#000" stroke-width="0" fill="#f1f5f9" style="stroke-width:0;fill:#f1f5f9"><path d="M 70.215 70.02 L 58.497 70.02 Q 56.975 70.02 55.208 69.118 A 12.644 12.644 0 0 1 54.419 68.678 A 11.195 11.195 0 0 1 52.46 67.195 A 8.88 8.88 0 0 1 51.026 65.431 L 42.725 52.442 A 23.149 23.149 0 0 0 39.671 48.571 Q 35.552 44.435 30.323 44.435 L 18.409 44.435 L 18.409 65.431 A 4.418 4.418 0 0 1 17.108 68.636 A 5.326 5.326 0 0 1 17.066 68.678 A 4.418 4.418 0 0 1 13.878 70.02 A 5.368 5.368 0 0 1 13.819 70.02 L 4.639 70.02 A 4.503 4.503 0 0 1 1.378 68.688 A 5.473 5.473 0 0 1 1.368 68.678 A 4.378 4.378 0 0 1 0.001 65.505 A 5.259 5.259 0 0 1 0.001 65.431 L 0.001 4.64 Q 0.001 2.735 1.319 1.368 Q 2.637 0.001 4.542 0.001 L 44.825 0.001 Q 56.006 0.001 63.16 6.007 A 19.657 19.657 0 0 1 70.248 20.303 A 27.485 27.485 0 0 1 70.313 22.218 Q 70.313 35.506 54.212 39.527 A 46.447 46.447 0 0 1 51.905 40.04 A 13.307 13.307 0 0 1 55.643 42.178 A 16.997 16.997 0 0 1 57.325 43.727 A 31.116 31.116 0 0 1 58.953 45.59 Q 60.698 47.742 62.745 50.869 A 101.925 101.925 0 0 1 63.038 51.319 L 71.924 65.431 A 7.312 7.312 0 0 1 72.369 66.342 Q 72.569 66.842 72.65 67.305 A 3.566 3.566 0 0 1 72.706 67.921 A 2.514 2.514 0 0 1 72.56 68.815 Q 72.145 69.91 70.551 70.01 A 5.317 5.317 0 0 1 70.215 70.02 Z M 102.247 65.04 L 74.17 4.103 A 2.805 2.805 0 0 1 73.882 2.984 A 3.317 3.317 0 0 1 73.877 2.809 A 1.476 1.476 0 0 1 73.972 2.314 Q 74.126 1.883 74.529 1.359 A 7.216 7.216 0 0 1 74.781 1.051 A 2.939 2.939 0 0 1 76.504 0.077 A 4.402 4.402 0 0 1 77.344 0.001 L 88.038 0.001 A 5.409 5.409 0 0 1 92.4 2.169 Q 93.215 3.172 93.848 4.64 L 112.745 46.729 L 131.641 4.64 Q 132.831 1.913 134.658 0.789 A 5.361 5.361 0 0 1 137.452 0.001 L 148.145 0.001 A 4.425 4.425 0 0 1 149.177 0.114 A 2.825 2.825 0 0 1 150.733 1.051 A 6.533 6.533 0 0 1 151.117 1.554 Q 151.48 2.085 151.577 2.512 A 1.345 1.345 0 0 1 151.612 2.809 A 3.568 3.568 0 0 1 151.521 3.626 A 3.047 3.047 0 0 1 151.368 4.103 L 123.243 65.04 A 10.892 10.892 0 0 1 121.763 67.448 A 6.82 6.82 0 0 1 116.26 70.02 L 109.229 70.02 A 6.843 6.843 0 0 1 103.589 67.277 A 11.118 11.118 0 0 1 102.247 65.04 Z M 18.409 13.819 L 18.409 30.616 L 39.21 30.616 A 21.431 21.431 0 0 0 43.939 30.116 A 16.949 16.949 0 0 0 48.072 28.614 Q 51.905 26.612 51.905 22.218 A 7.847 7.847 0 0 0 51.442 19.451 Q 50.681 17.418 48.671 16.164 A 9.014 9.014 0 0 0 48.072 15.821 A 17.492 17.492 0 0 0 42.381 14.035 A 22.601 22.601 0 0 0 39.21 13.819 L 18.409 13.819 Z"/></g></svg>